<svg t="1692541749247" class="icon" viewBox="0 0 1024 1024" version="1.1" xmlns="http://www.w3.org/2000/svg" p-id="2065" width="200" height="200"><path d="M750.933333 891.306667a256 256 0 0 1-90.026666-26.88 388.693333 388.693333 0 0 0-148.906667-39.68 388.693333 388.693333 0 0 0-148.906667 39.68c-49.493333 20.906667-92.16 38.826667-125.866666 16.64a101.973333 101.973333 0 0 1-33.28-88.32c0-163.413333 131.84-346.026667 308.053333-346.026667s308.053333 182.613333 308.053333 346.026667a101.973333 101.973333 0 0 1-33.28 88.32 63.573333 63.573333 0 0 1-35.84 10.24zM512 512c-137.386667 0-244.053333 151.466667-244.053333 282.026667 0 28.586667 5.546667 35.413333 5.546666 35.413333a243.626667 243.626667 0 0 0 64.853334-22.613333A445.866667 445.866667 0 0 1 512 760.746667a445.866667 445.866667 0 0 1 173.653333 44.8 233.386667 233.386667 0 0 0 66.56 21.76 117.76 117.76 0 0 0 3.84-34.56c0-130.56-106.666667-280.746667-244.053333-280.746667zM517.12 386.986667C469.333333 386.986667 426.666667 331.093333 426.666667 259.84s39.253333-128 89.173333-128 89.173333 55.893333 89.173333 128-37.973333 127.146667-87.893333 127.146667z m0-190.293334c-6.4 0-25.173333 21.76-25.173333 63.146667s18.773333 63.146667 25.173333 63.146667 25.173333-21.76 25.173333-63.146667-18.773333-63.146667-25.173333-63.146667zM217.173333 500.053333c-49.92 0-89.173333-55.893333-89.173333-128s39.253333-128 89.173333-128 89.173333 55.893333 89.173334 128-39.253333 128-89.173334 128z m0-190.293333c-6.4 0-25.173333 21.76-25.173333 63.146667s18.773333 63.146667 25.173333 63.146666 25.173333-21.76 25.173334-63.146666-18.773333-63.146667-25.173334-63.146667zM806.826667 497.92c-49.92 0-89.173333-55.893333-89.173334-128s39.253333-128 89.173334-128S896 298.666667 896 370.346667s-39.253333 127.573333-89.173333 127.573333z m0-190.293333c-6.4 0-25.173333 21.333333-25.173334 62.72s18.773333 63.573333 25.173334 63.573333 25.173333-21.76 25.173333-63.573333-18.773333-62.72-25.173333-62.72z" p-id="2066"></path></svg>